<mxfile host="app.diagrams.net" modified="2022-08-08T03:26:05.410Z" agent="5.0 (Windows NT 10.0; Win64; x64) AppleWebKit/537.36 (KHTML, like Gecko) Chrome/104.0.0.0 Safari/537.36" etag="MOi0pB-fAqy1A1omKpV1" version="20.2.3" type="github">
  <diagram id="prtHgNgQTEPvFCAcTncT" name="Page-1">
    <mxGraphModel dx="782" dy="428" grid="1" gridSize="10" guides="1" tooltips="1" connect="1" arrows="1" fold="1" page="1" pageScale="1" pageWidth="827" pageHeight="1169" math="0" shadow="0">
      <root>
        <mxCell id="0" />
        <mxCell id="1" parent="0" />
        <mxCell id="dNxyNK7c78bLwvsdeMH5-11" value="系统架构图" style="swimlane;html=1;startSize=20;horizontal=1;containerType=tree;glass=0;" parent="1" vertex="1">
          <mxGeometry x="40" y="83" width="640" height="380" as="geometry" />
        </mxCell>
        <UserObject label="&amp;nbsp; &amp;nbsp; &amp;nbsp; &amp;nbsp; &amp;nbsp; &amp;nbsp; &amp;nbsp; &amp;nbsp; &amp;nbsp; &amp;nbsp; &amp;nbsp; &amp;nbsp; &amp;nbsp; &amp;nbsp; &amp;nbsp; &amp;nbsp; &amp;nbsp; &amp;nbsp; &amp;nbsp; &amp;nbsp; &amp;nbsp; &amp;nbsp; &amp;nbsp; &amp;nbsp; &amp;nbsp; &amp;nbsp;用户请求" name="Tessa Miller" position="CFO" location="Office 1" email="me@example.com" placeholders="1" link="https://www.draw.io" id="dNxyNK7c78bLwvsdeMH5-12">
          <mxCell style="label;image=https://cdn3.iconfinder.com/data/icons/user-avatars-1/512/users-3-128.png;whiteSpace=wrap;html=1;rounded=0;glass=0;treeMoving=1;treeFolding=1;" parent="dNxyNK7c78bLwvsdeMH5-11" vertex="1">
            <mxGeometry x="100" y="57" width="500" height="60" as="geometry" />
          </mxCell>
        </UserObject>
        <mxCell id="PS00Z6VgK2i5Oi5bPEkg-2" value="&amp;nbsp;http/https" style="rounded=0;whiteSpace=wrap;html=1;" vertex="1" parent="dNxyNK7c78bLwvsdeMH5-11">
          <mxGeometry x="100" y="130" width="500" height="60" as="geometry" />
        </mxCell>
        <mxCell id="PS00Z6VgK2i5Oi5bPEkg-6" value="" style="rounded=0;whiteSpace=wrap;html=1;" vertex="1" parent="dNxyNK7c78bLwvsdeMH5-11">
          <mxGeometry x="100" y="200" width="500" height="80" as="geometry" />
        </mxCell>
        <mxCell id="PS00Z6VgK2i5Oi5bPEkg-7" value="&lt;span style=&quot;color: rgba(0, 0, 0, 0); font-family: monospace; font-size: 0px; text-align: start;&quot;&gt;%3CmxGraphModel%3E%3Croot%3E%3CmxCell%20id%3D%220%22%2F%3E%3CmxCell%20id%3D%221%22%20parent%3D%220%22%2F%3E%3CmxCell%20id%3D%222%22%20value%3D%22%E5%B7%A5%E5%8D%95%E7%AE%A1%E7%90%86%22%20style%3D%22rounded%3D1%3BwhiteSpace%3Dwrap%3Bhtml%3D1%3B%22%20vertex%3D%221%22%20parent%3D%221%22%3E%3CmxGeometry%20x%3D%22520%22%20y%3D%22298%22%20width%3D%2280%22%20height%3D%2225%22%20as%3D%22geometry%22%2F%3E%3C%2FmxCell%3E%3C%2Froot%3E%3C%2FmxGraphModel%3E&lt;/span&gt;" style="rounded=0;whiteSpace=wrap;html=1;" vertex="1" parent="dNxyNK7c78bLwvsdeMH5-11">
          <mxGeometry x="100" y="290" width="500" height="60" as="geometry" />
        </mxCell>
        <mxCell id="PS00Z6VgK2i5Oi5bPEkg-8" value="工作看板" style="rounded=1;whiteSpace=wrap;html=1;" vertex="1" parent="dNxyNK7c78bLwvsdeMH5-11">
          <mxGeometry x="120" y="215" width="80" height="25" as="geometry" />
        </mxCell>
        <mxCell id="PS00Z6VgK2i5Oi5bPEkg-9" value="指标看板" style="rounded=1;whiteSpace=wrap;html=1;" vertex="1" parent="dNxyNK7c78bLwvsdeMH5-11">
          <mxGeometry x="210" y="215" width="80" height="25" as="geometry" />
        </mxCell>
        <mxCell id="PS00Z6VgK2i5Oi5bPEkg-10" value="营销服务" style="rounded=1;whiteSpace=wrap;html=1;" vertex="1" parent="dNxyNK7c78bLwvsdeMH5-11">
          <mxGeometry x="300" y="215" width="80" height="25" as="geometry" />
        </mxCell>
        <mxCell id="PS00Z6VgK2i5Oi5bPEkg-11" value="核算管理" style="rounded=1;whiteSpace=wrap;html=1;" vertex="1" parent="dNxyNK7c78bLwvsdeMH5-11">
          <mxGeometry x="390" y="215" width="80" height="25" as="geometry" />
        </mxCell>
        <mxCell id="PS00Z6VgK2i5Oi5bPEkg-12" value="工单管理" style="rounded=1;whiteSpace=wrap;html=1;" vertex="1" parent="dNxyNK7c78bLwvsdeMH5-11">
          <mxGeometry x="480" y="215" width="80" height="25" as="geometry" />
        </mxCell>
        <mxCell id="PS00Z6VgK2i5Oi5bPEkg-14" value="安全生产" style="rounded=1;whiteSpace=wrap;html=1;" vertex="1" parent="dNxyNK7c78bLwvsdeMH5-11">
          <mxGeometry x="120" y="245" width="80" height="25" as="geometry" />
        </mxCell>
        <mxCell id="PS00Z6VgK2i5Oi5bPEkg-15" value="综合管理" style="rounded=1;whiteSpace=wrap;html=1;" vertex="1" parent="dNxyNK7c78bLwvsdeMH5-11">
          <mxGeometry x="210" y="245" width="80" height="25" as="geometry" />
        </mxCell>
        <mxCell id="PS00Z6VgK2i5Oi5bPEkg-16" value="系统管理" style="rounded=1;whiteSpace=wrap;html=1;" vertex="1" parent="dNxyNK7c78bLwvsdeMH5-11">
          <mxGeometry x="300" y="245" width="80" height="25" as="geometry" />
        </mxCell>
        <mxCell id="PS00Z6VgK2i5Oi5bPEkg-17" value="接口管理" style="rounded=1;whiteSpace=wrap;html=1;" vertex="1" parent="dNxyNK7c78bLwvsdeMH5-11">
          <mxGeometry x="390" y="245" width="80" height="25" as="geometry" />
        </mxCell>
        <mxCell id="PS00Z6VgK2i5Oi5bPEkg-18" value="mysql业务数据" style="rounded=1;whiteSpace=wrap;html=1;" vertex="1" parent="dNxyNK7c78bLwvsdeMH5-11">
          <mxGeometry x="230" y="307.5" width="100" height="25" as="geometry" />
        </mxCell>
        <mxCell id="PS00Z6VgK2i5Oi5bPEkg-19" value="验签/shiro验证" style="rounded=1;whiteSpace=wrap;html=1;" vertex="1" parent="dNxyNK7c78bLwvsdeMH5-11">
          <mxGeometry x="460" y="147.5" width="80" height="25" as="geometry" />
        </mxCell>
        <mxCell id="PS00Z6VgK2i5Oi5bPEkg-20" value="mysql操作日志" style="rounded=1;whiteSpace=wrap;html=1;" vertex="1" parent="dNxyNK7c78bLwvsdeMH5-11">
          <mxGeometry x="350" y="307.5" width="100" height="25" as="geometry" />
        </mxCell>
        <mxCell id="PS00Z6VgK2i5Oi5bPEkg-21" value="用户" style="rounded=0;whiteSpace=wrap;html=1;" vertex="1" parent="dNxyNK7c78bLwvsdeMH5-11">
          <mxGeometry x="30" y="57" width="60" height="60" as="geometry" />
        </mxCell>
        <mxCell id="PS00Z6VgK2i5Oi5bPEkg-22" value="传输层" style="rounded=0;whiteSpace=wrap;html=1;" vertex="1" parent="dNxyNK7c78bLwvsdeMH5-11">
          <mxGeometry x="30" y="130" width="60" height="60" as="geometry" />
        </mxCell>
        <mxCell id="PS00Z6VgK2i5Oi5bPEkg-23" value="应用层" style="rounded=0;whiteSpace=wrap;html=1;" vertex="1" parent="dNxyNK7c78bLwvsdeMH5-11">
          <mxGeometry x="30" y="200" width="60" height="80" as="geometry" />
        </mxCell>
        <mxCell id="PS00Z6VgK2i5Oi5bPEkg-24" value="数据层" style="rounded=0;whiteSpace=wrap;html=1;" vertex="1" parent="dNxyNK7c78bLwvsdeMH5-11">
          <mxGeometry x="30" y="290" width="60" height="60" as="geometry" />
        </mxCell>
      </root>
    </mxGraphModel>
  </diagram>
</mxfile>
